<svg xmlns="http://www.w3.org/2000/svg" version="1.1" xmlns:xlink="http://www.w3.org/1999/xlink" xmlns:svgjs="http://svgjs.dev/svgjs" width="1440" height="560" preserveAspectRatio="none" viewBox="0 0 1440 560"><g mask="url(&quot;#SvgjsMask1005&quot;)" fill="none"><path d="M433.31 595.72C542.9 593.21 637.48 441.74 843.81 441.63 1050.13 441.52 1049.05 511.63 1254.3 511.63 1459.55 511.63 1560.69 441.88 1664.8 441.63" stroke="rgba(157, 32, 136, 0.58)" stroke-width="2"></path><path d="M553.28 599.32C656.58 575.63 592.96 320.58 854.68 301.21 1116.41 281.84 1295.78 70.13 1457.49 66.01" stroke="rgba(157, 32, 136, 0.58)" stroke-width="2"></path><path d="M824.12 669.62C934.9 668.63 1017.78 563.45 1252.13 554.81 1486.47 546.17 1554.24 296.85 1680.13 286.01" stroke="rgba(157, 32, 136, 0.58)" stroke-width="2"></path><path d="M844.75 593.17C929.25 585.09 886.97 421.24 1128.57 406.78 1370.18 392.32 1538.76 139.45 1696.22 132.38" stroke="rgba(157, 32, 136, 0.58)" stroke-width="2"></path><path d="M943.6 604.62C1058.83 524.92 998.62 106.89 1196.47 104.51 1394.33 102.13 1558.63 370.26 1702.22 378.91" stroke="rgba(157, 32, 136, 0.58)" stroke-width="2"></path></g><defs><mask id="SvgjsMask1005"><rect width="1440" height="560" fill="#ffffff"></rect></mask></defs></svg>